# xmcd
#
# Track frame offsets: 
#        150
#        13026
#        25297
#        38560
#        51270
#        63100
#        76713
#        94106
#        105970
#        129616
#        144112
#        156440
#        167431
#        180335
#        193197
#        205666
#        217925
#        226592
#        237074
#        253739
#        264938
#        279717
#        293014
#        304065
#        317138
#        330054
#        344697
#        355392
#
# Disc length: 4777 seconds
#
# Revision: 0
# Processed by: cddbd v1.5.2PL0 Copyright (c) Steve Scherf et al.
# Submitted via: ExactAudioCopy v1.3
#
DISCID=7612a71c
DTITLE=Jimmy Dean - Big Bad John_The Orig. LP Plus All His Hit Singles
DYEAR=2016
DGENRE=Country
TTITLE0=Bumming Around
TTITLE1=Deep Blue Sea
TTITLE2=Love Me So I'll Know
TTITLE3=Little Sandy Sleighfoot
TTITLE4=Sing Along
TTITLE5=Big Bad John [Original Lyric]
TTITLE6=Dear Ivan
TTITLE7=The Cajun Queen
TTITLE8=To A Sleeping Beauty
TTITLE9=P. T. 109
TTITLE10=Steel Men
TTITLE11=Little Black Book
TTITLE12=Gonna Raise A Ruckus Tonight
TTITLE13=I Won't Go Hunting With You Jake
TTITLE14=Smoke, Smoke, Smoke That Cigarette
TTITLE15=Sixteen Tons
TTITLE16=Make The Waterwheel Roll
TTITLE17=Gotta Travel On
TTITLE18=Oklahoma Bill
TTITLE19=Night Train To Memphis
TTITLE20=Grasshopper McClain
TTITLE21=Please Pass The Biscuits
TTITLE22=Have You Ever Been Lonely
TTITLE23=Nobody
TTITLE24=I Was Just Walking Out The Door
TTITLE25=Darktown Poker Club
TTITLE26=Kentucky Means Paradise
TTITLE27=Big Bad John [Excerpt - Revised End Lyric]
EXTD=
EXTT0=
EXTT1=
EXTT2=
EXTT3=
EXTT4=
EXTT5=
EXTT6=
EXTT7=
EXTT8=
EXTT9=
EXTT10=
EXTT11=
EXTT12=
EXTT13=
EXTT14=
EXTT15=
EXTT16=
EXTT17=
EXTT18=
EXTT19=
EXTT20=
EXTT21=
EXTT22=
EXTT23=
EXTT24=
EXTT25=
EXTT26=
EXTT27=
PLAYORDER=
